STARTFONT 2.1
COMMENT $XConsortium: luBS10.bdf,v 1.7 94/04/02 15:59:28 gildea Exp $
COMMENT  (c) Copyright Bigelow & Holmes 1986, 1985. Lucida is a registered
COMMENT  trademark of Bigelow & Holmes. See LEGAL NOTICE file for terms 
COMMENT  of the license. 
COMMENT GRID 0010 0010 0200 0200
COMMENT  
COMMENT  Translation to ISO8859-2 by Cub Soft;  Petr.Kolar@vslib.cz
COMMENT  
FONT -B&H-Lucida-Bold-R-Normal-Sans-10-100-75-75-P-66-ISO8859-2
SIZE 10 72 72
FONTBOUNDINGBOX 14 11 -1 -2
STARTPROPERTIES 20
COMMENT Begin LogicalFontDescription
FONTNAME_REGISTRY ""
FOUNDRY "B&H"
FAMILY_NAME "Lucida"
WEIGHT_NAME "Bold"
SLANT "R"
SETWIDTH_NAME "Normal"
ADD_STYLE_NAME "Sans"
PIXEL_SIZE 10
POINT_SIZE 100
RESOLUTION_X 75
RESOLUTION_Y 75
SPACING "P"
AVERAGE_WIDTH 66
CHARSET_REGISTRY "ISO8859"
CHARSET_ENCODING "2"
COMMENT END LogicalFontDescription
FONT_ASCENT 9
FONT_DESCENT 2
DEFAULT_CHAR 0
COPYRIGHT "Copyright Bigelow & Holmes 1986, 1985., Copyright 1996 Cub Soft"
FACE_NAME "Lucida Sans Bold"
ENDPROPERTIES
CHARS 191
STARTCHAR space
ENCODING 32
SWIDTH 343 0
DWIDTH 3 0
BBX 1 1 0 0
BITMAP
00
ENDCHAR
STARTCHAR exclam
ENCODING 33
SWIDTH 265 0
DWIDTH 4 0
BBX 2 7 1 0
BITMAP
c0
c0
c0
40
00
c0
c0
ENDCHAR
STARTCHAR quotedbl
ENCODING 34
SWIDTH 530 0
DWIDTH 5 0
BBX 5 4 0 4
BITMAP
d8
d8
90
90
ENDCHAR
STARTCHAR numbersign
ENCODING 35
SWIDTH 687 0
DWIDTH 7 0
BBX 6 7 1 0
BITMAP
68
68
ec
68
ec
68
68
ENDCHAR
STARTCHAR dollar
ENCODING 36
SWIDTH 687 0
DWIDTH 7 0
BBX 6 9 1 -1
BITMAP
10
7c
d0
d0
78
2c
2c
f8
20
ENDCHAR
STARTCHAR percent
ENCODING 37
SWIDTH 898 0
DWIDTH 9 0
BBX 9 7 0 0
BITMAP
6200
b600
6400
0800
1300
3580
2300
ENDCHAR
STARTCHAR ampersand
ENCODING 38
SWIDTH 792 0
DWIDTH 8 0
BBX 6 7 1 0
BITMAP
70
d8
70
74
d8
cc
74
ENDCHAR
STARTCHAR apostrophe
ENCODING 39
SWIDTH 265 0
DWIDTH 3 0
BBX 2 4 1 4
BITMAP
c0
c0
40
80
ENDCHAR
STARTCHAR parenleft
ENCODING 40
SWIDTH 386 0
DWIDTH 4 0
BBX 3 9 1 -1
BITMAP
20
60
c0
c0
c0
c0
c0
60
20
ENDCHAR
STARTCHAR parenright
ENCODING 41
SWIDTH 386 0
DWIDTH 4 0
BBX 3 9 0 -1
BITMAP
80
c0
60
60
60
60
60
c0
80
ENDCHAR
STARTCHAR asterisk
ENCODING 42
SWIDTH 464 0
DWIDTH 5 0
BBX 5 3 0 4
BITMAP
d8
60
d8
ENDCHAR
STARTCHAR plus
ENCODING 43
SWIDTH 687 0
DWIDTH 7 0
BBX 5 5 1 1
BITMAP
20
20
f8
20
20
ENDCHAR
STARTCHAR comma
ENCODING 44
SWIDTH 343 0
DWIDTH 3 0
BBX 2 4 1 -2
BITMAP
c0
c0
40
80
ENDCHAR
STARTCHAR minus
ENCODING 45
SWIDTH 687 0
DWIDTH 7 0
BBX 5 1 1 3
BITMAP
f8
ENDCHAR
STARTCHAR period
ENCODING 46
SWIDTH 343 0
DWIDTH 3 0
BBX 2 2 1 0
BITMAP
c0
c0
ENDCHAR
STARTCHAR slash
ENCODING 47
SWIDTH 596 0
DWIDTH 6 0
BBX 6 9 0 -1
BITMAP
0c
0c
18
18
30
60
60
c0
c0
ENDCHAR
STARTCHAR zero
ENCODING 48
SWIDTH 687 0
DWIDTH 7 0
BBX 6 7 1 0
BITMAP
78
cc
cc
cc
cc
cc
78
ENDCHAR
STARTCHAR one
ENCODING 49
SWIDTH 687 0
DWIDTH 7 0
BBX 4 7 1 0
BITMAP
30
f0
30
30
30
30
30
ENDCHAR
STARTCHAR two
ENCODING 50
SWIDTH 687 0
DWIDTH 7 0
BBX 6 7 1 0
BITMAP
78
cc
0c
38
60
c0
fc
ENDCHAR
STARTCHAR three
ENCODING 51
SWIDTH 687 0
DWIDTH 7 0
BBX 6 7 1 0
BITMAP
78
cc
0c
38
0c
cc
78
ENDCHAR
STARTCHAR four
ENCODING 52
SWIDTH 687 0
DWIDTH 7 0
BBX 6 7 1 0
BITMAP
18
38
58
98
fc
18
18
ENDCHAR
STARTCHAR five
ENCODING 53
SWIDTH 687 0
DWIDTH 7 0
BBX 6 7 1 0
BITMAP
fc
c0
c0
f8
0c
cc
78
ENDCHAR
STARTCHAR six
ENCODING 54
SWIDTH 687 0
DWIDTH 7 0
BBX 6 7 1 0
BITMAP
78
cc
c0
f8
cc
cc
78
ENDCHAR
STARTCHAR seven
ENCODING 55
SWIDTH 687 0
DWIDTH 7 0
BBX 6 7 1 0
BITMAP
fc
fc
0c
18
30
60
60
ENDCHAR
STARTCHAR eight
ENCODING 56
SWIDTH 687 0
DWIDTH 7 0
BBX 6 7 1 0
BITMAP
78
cc
cc
78
cc
cc
78
ENDCHAR
STARTCHAR nine
ENCODING 57
SWIDTH 687 0
DWIDTH 7 0
BBX 6 7 1 0
BITMAP
78
cc
cc
7c
0c
cc
78
ENDCHAR
STARTCHAR colon
ENCODING 58
SWIDTH 343 0
DWIDTH 3 0
BBX 2 6 1 0
BITMAP
c0
c0
00
00
c0
c0
ENDCHAR
STARTCHAR semicolon
ENCODING 59
SWIDTH 343 0
DWIDTH 3 0
BBX 2 8 1 -2
BITMAP
c0
c0
00
00
c0
c0
40
80
ENDCHAR
STARTCHAR less
ENCODING 60
SWIDTH 687 0
DWIDTH 7 0
BBX 5 5 1 1
BITMAP
18
60
c0
60
18
ENDCHAR
STARTCHAR equal
ENCODING 61
SWIDTH 687 0
DWIDTH 7 0
BBX 5 3 1 2
BITMAP
f8
00
f8
ENDCHAR
STARTCHAR greater
ENCODING 62
SWIDTH 687 0
DWIDTH 7 0
BBX 5 5 1 1
BITMAP
c0
30
18
30
c0
ENDCHAR
STARTCHAR question
ENCODING 63
SWIDTH 572 0
DWIDTH 6 0
BBX 5 7 1 0
BITMAP
f0
18
18
70
00
60
60
ENDCHAR
STARTCHAR at
ENCODING 64
SWIDTH 833 0
DWIDTH 9 0
BBX 7 7 1 0
BITMAP
78
cc
9c
ac
9e
c0
7c
ENDCHAR
STARTCHAR A
ENCODING 65
SWIDTH 773 0
DWIDTH 8 0
BBX 6 7 1 0
BITMAP
30
30
58
58
fc
8c
8c
ENDCHAR
STARTCHAR B
ENCODING 66
SWIDTH 669 0
DWIDTH 7 0
BBX 5 7 1 0
BITMAP
f0
d8
d8
f0
d8
d8
f0
ENDCHAR
STARTCHAR C
ENCODING 67
SWIDTH 726 0
DWIDTH 8 0
BBX 6 7 1 0
BITMAP
3c
60
c0
c0
c0
60
3c
ENDCHAR
STARTCHAR D
ENCODING 68
SWIDTH 819 0
DWIDTH 8 0
BBX 6 7 1 0
BITMAP
f0
d8
cc
cc
cc
d8
f0
ENDCHAR
STARTCHAR E
ENCODING 69
SWIDTH 645 0
DWIDTH 7 0
BBX 5 7 1 0
BITMAP
f8
c0
c0
f0
c0
c0
f8
ENDCHAR
STARTCHAR F
ENCODING 70
SWIDTH 602 0
DWIDTH 6 0
BBX 5 7 1 0
BITMAP
f8
c0
c0
f0
c0
c0
c0
ENDCHAR
STARTCHAR G
ENCODING 71
SWIDTH 759 0
DWIDTH 8 0
BBX 6 7 1 0
BITMAP
3c
60
c0
cc
cc
6c
3c
ENDCHAR
STARTCHAR H
ENCODING 72
SWIDTH 813 0
DWIDTH 8 0
BBX 6 7 1 0
BITMAP
cc
cc
cc
fc
cc
cc
cc
ENDCHAR
STARTCHAR I
ENCODING 73
SWIDTH 361 0
DWIDTH 4 0
BBX 2 7 1 0
BITMAP
c0
c0
c0
c0
c0
c0
c0
ENDCHAR
STARTCHAR J
ENCODING 74
SWIDTH 501 0
DWIDTH 5 0
BBX 4 9 0 -2
BITMAP
30
30
30
30
30
30
30
30
e0
ENDCHAR
STARTCHAR K
ENCODING 75
SWIDTH 753 0
DWIDTH 8 0
BBX 7 7 1 0
BITMAP
cc
d8
d0
f0
d8
cc
c6
ENDCHAR
STARTCHAR L
ENCODING 76
SWIDTH 620 0
DWIDTH 6 0
BBX 5 7 1 0
BITMAP
c0
c0
c0
c0
c0
c0
f8
ENDCHAR
STARTCHAR M
ENCODING 77
SWIDTH 940 0
DWIDTH 10 0
BBX 8 7 1 0
BITMAP
c3
e7
f7
bb
93
93
83
ENDCHAR
STARTCHAR N
ENCODING 78
SWIDTH 783 0
DWIDTH 8 0
BBX 6 7 1 0
BITMAP
c4
e4
f4
bc
9c
8c
84
ENDCHAR
STARTCHAR O
ENCODING 79
SWIDTH 855 0
DWIDTH 9 0
BBX 7 7 1 0
BITMAP
38
6c
c6
c6
c6
6c
38
ENDCHAR
STARTCHAR P
ENCODING 80
SWIDTH 657 0
DWIDTH 7 0
BBX 5 7 1 0
BITMAP
f0
d8
d8
f0
c0
c0
c0
ENDCHAR
STARTCHAR Q
ENCODING 81
SWIDTH 855 0
DWIDTH 9 0
BBX 7 9 1 -2
BITMAP
38
6c
c6
c6
c6
6c
38
0c
06
ENDCHAR
STARTCHAR R
ENCODING 82
SWIDTH 734 0
DWIDTH 7 0
BBX 6 7 1 0
BITMAP
f0
d8
d8
f0
d8
d8
cc
ENDCHAR
STARTCHAR S
ENCODING 83
SWIDTH 594 0
DWIDTH 7 0
BBX 5 7 1 0
BITMAP
78
c0
e0
70
38
18
f0
ENDCHAR
STARTCHAR T
ENCODING 84
SWIDTH 735 0
DWIDTH 7 0
BBX 6 7 1 0
BITMAP
fc
30
30
30
30
30
30
ENDCHAR
STARTCHAR U
ENCODING 85
SWIDTH 783 0
DWIDTH 8 0
BBX 6 7 1 0
BITMAP
cc
cc
cc
cc
cc
cc
78
ENDCHAR
STARTCHAR V
ENCODING 86
SWIDTH 735 0
DWIDTH 8 0
BBX 6 7 1 0
BITMAP
cc
cc
cc
68
78
30
30
ENDCHAR
STARTCHAR W
ENCODING 87
SWIDTH 940 0
DWIDTH 10 0
BBX 9 7 1 0
BITMAP
c180
c980
c980
6d00
6d00
3600
3600
ENDCHAR
STARTCHAR X
ENCODING 88
SWIDTH 699 0
DWIDTH 7 0
BBX 5 7 1 0
BITMAP
d8
d8
70
20
70
d8
d8
ENDCHAR
STARTCHAR Y
ENCODING 89
SWIDTH 738 0
DWIDTH 8 0
BBX 6 7 1 0
BITMAP
cc
cc
68
30
30
30
30
ENDCHAR
STARTCHAR Z
ENCODING 90
SWIDTH 675 0
DWIDTH 7 0
BBX 5 7 1 0
BITMAP
f8
18
30
70
60
c0
f8
ENDCHAR
STARTCHAR bracketleft
ENCODING 91
SWIDTH 386 0
DWIDTH 4 0
BBX 3 9 1 -1
BITMAP
e0
c0
c0
c0
c0
c0
c0
c0
e0
ENDCHAR
STARTCHAR backslash
ENCODING 92
SWIDTH 596 0
DWIDTH 6 0
BBX 6 9 0 -1
BITMAP
c0
c0
60
60
30
18
18
0c
0c
ENDCHAR
STARTCHAR bracketright
ENCODING 93
SWIDTH 386 0
DWIDTH 4 0
BBX 3 9 0 -1
BITMAP
e0
60
60
60
60
60
60
60
e0
ENDCHAR
STARTCHAR asciicircum
ENCODING 94
SWIDTH 687 0
DWIDTH 7 0
BBX 6 6 1 1
BITMAP
30
30
58
58
8c
8c
ENDCHAR
STARTCHAR underscore
ENCODING 95
SWIDTH 500 0
DWIDTH 8 0
BBX 6 1 1 -1
BITMAP
fc
ENDCHAR
STARTCHAR grave
ENCODING 96
SWIDTH 675 0
DWIDTH 7 0
BBX 3 2 2 7
BITMAP
c0
60
ENDCHAR
STARTCHAR a
ENCODING 97
SWIDTH 623 0
DWIDTH 6 0
BBX 6 6 0 0
BITMAP
70
18
78
d8
d8
6c
ENDCHAR
STARTCHAR b
ENCODING 98
SWIDTH 696 0
DWIDTH 7 0
BBX 5 8 1 0
BITMAP
c0
c0
f0
d8
d8
d8
d8
f0
ENDCHAR
STARTCHAR c
ENCODING 99
SWIDTH 545 0
DWIDTH 6 0
BBX 4 6 1 0
BITMAP
70
c0
c0
c0
c0
70
ENDCHAR
STARTCHAR d
ENCODING 100
SWIDTH 696 0
DWIDTH 7 0
BBX 5 8 1 0
BITMAP
18
18
78
d8
d8
d8
d8
68
ENDCHAR
STARTCHAR e
ENCODING 101
SWIDTH 614 0
DWIDTH 7 0
BBX 5 6 1 0
BITMAP
70
d8
d8
f8
c0
78
ENDCHAR
STARTCHAR f
ENCODING 102
SWIDTH 461 0
DWIDTH 5 0
BBX 5 8 0 0
BITMAP
38
60
f8
60
60
60
60
60
ENDCHAR
STARTCHAR g
ENCODING 103
SWIDTH 696 0
DWIDTH 7 0
BBX 5 8 1 -2
BITMAP
78
d8
d8
d8
d8
78
18
f0
ENDCHAR
STARTCHAR h
ENCODING 104
SWIDTH 693 0
DWIDTH 7 0
BBX 5 8 1 0
BITMAP
c0
c0
d0
f8
d8
d8
d8
d8
ENDCHAR
STARTCHAR i
ENCODING 105
SWIDTH 361 0
DWIDTH 4 0
BBX 2 8 1 0
BITMAP
c0
00
c0
c0
c0
c0
c0
c0
ENDCHAR
STARTCHAR j
ENCODING 106
SWIDTH 361 0
DWIDTH 4 0
BBX 4 10 -1 -2
BITMAP
30
00
30
30
30
30
30
30
30
e0
ENDCHAR
STARTCHAR k
ENCODING 107
SWIDTH 681 0
DWIDTH 7 0
BBX 6 8 1 0
BITMAP
c0
c0
c8
d0
e0
f0
d8
cc
ENDCHAR
STARTCHAR l
ENCODING 108
SWIDTH 361 0
DWIDTH 4 0
BBX 2 8 1 0
BITMAP
c0
c0
c0
c0
c0
c0
c0
c0
ENDCHAR
STARTCHAR m
ENCODING 109
SWIDTH 1006 0
DWIDTH 10 0
BBX 8 6 1 0
BITMAP
b6
db
db
db
db
db
ENDCHAR
STARTCHAR n
ENCODING 110
SWIDTH 693 0
DWIDTH 7 0
BBX 5 6 1 0
BITMAP
b0
d8
d8
d8
d8
d8
ENDCHAR
STARTCHAR o
ENCODING 111
SWIDTH 675 0
DWIDTH 7 0
BBX 5 6 1 0
BITMAP
70
d8
d8
d8
d8
70
ENDCHAR
STARTCHAR p
ENCODING 112
SWIDTH 696 0
DWIDTH 7 0
BBX 5 8 1 -2
BITMAP
b0
d8
d8
d8
d8
f0
c0
c0
ENDCHAR
STARTCHAR q
ENCODING 113
SWIDTH 696 0
DWIDTH 7 0
BBX 5 8 1 -2
BITMAP
78
d8
d8
d8
d8
78
18
18
ENDCHAR
STARTCHAR r
ENCODING 114
SWIDTH 500 0
DWIDTH 5 0
BBX 4 6 1 0
BITMAP
d0
f0
c0
c0
c0
c0
ENDCHAR
STARTCHAR s
ENCODING 115
SWIDTH 622 0
DWIDTH 6 0
BBX 4 6 1 0
BITMAP
70
c0
e0
70
30
e0
ENDCHAR
STARTCHAR t
ENCODING 116
SWIDTH 436 0
DWIDTH 5 0
BBX 4 7 0 0
BITMAP
60
f0
60
60
60
60
30
ENDCHAR
STARTCHAR u
ENCODING 117
SWIDTH 693 0
DWIDTH 7 0
BBX 5 6 1 0
BITMAP
d8
d8
d8
d8
d8
68
ENDCHAR
STARTCHAR v
ENCODING 118
SWIDTH 663 0
DWIDTH 8 0
BBX 6 6 1 0
BITMAP
cc
cc
68
68
30
30
ENDCHAR
STARTCHAR w
ENCODING 119
SWIDTH 885 0
DWIDTH 9 0
BBX 7 6 1 0
BITMAP
c2
da
da
da
6c
6c
ENDCHAR
STARTCHAR x
ENCODING 120
SWIDTH 568 0
DWIDTH 6 0
BBX 4 6 1 0
BITMAP
d0
d0
60
60
b0
b0
ENDCHAR
STARTCHAR y
ENCODING 121
SWIDTH 645 0
DWIDTH 7 0
BBX 6 8 1 -2
BITMAP
cc
cc
68
68
30
30
60
60
ENDCHAR
STARTCHAR z
ENCODING 122
SWIDTH 608 0
DWIDTH 6 0
BBX 4 6 1 0
BITMAP
f0
30
60
60
c0
f0
ENDCHAR
STARTCHAR braceleft
ENCODING 123
SWIDTH 386 0
DWIDTH 4 0
BBX 4 9 0 -1
BITMAP
30
60
60
20
c0
20
60
60
30
ENDCHAR
STARTCHAR bar
ENCODING 124
SWIDTH 265 0
DWIDTH 4 0
BBX 2 9 1 -1
BITMAP
c0
c0
c0
c0
c0
c0
c0
c0
c0
ENDCHAR
STARTCHAR braceright
ENCODING 125
SWIDTH 386 0
DWIDTH 4 0
BBX 4 9 0 -1
BITMAP
c0
60
60
40
30
40
60
60
c0
ENDCHAR
STARTCHAR asciitilde
ENCODING 126
SWIDTH 687 0
DWIDTH 7 0
BBX 6 2 1 3
BITMAP
74
b8
ENDCHAR
STARTCHAR nobreakspace
ENCODING 160
SWIDTH 343 0
DWIDTH 3 0
BBX 1 1 0 0
BITMAP
00
ENDCHAR
STARTCHAR Aogonek
ENCODING 161
SWIDTH 773 0
DWIDTH 8 0
BBX 6 9 1 -2
BITMAP
30
30
58
58
fc
8c
8c
40
30
ENDCHAR
STARTCHAR breve
ENCODING 162
SWIDTH 675 0
DWIDTH 7 0
BBX 5 2 1 7
BITMAP
88
70
ENDCHAR
STARTCHAR Lstroke
ENCODING 163
SWIDTH 620 0
DWIDTH 7 0
BBX 7 7 0 0
BITMAP
30
30
3c
f0
30
30
3e
ENDCHAR
STARTCHAR currency
ENCODING 164
SWIDTH 687 0
DWIDTH 7 0
BBX 7 7 0 0
BITMAP
82
7c
6c
6c
6c
7c
82
ENDCHAR
STARTCHAR Lcaron
ENCODING 165
SWIDTH 620 0
DWIDTH 6 0
BBX 5 8 1 0
BITMAP
18
d8
c8
d0
c0
c0
c0
f8
ENDCHAR
STARTCHAR Sacute
ENCODING 166
SWIDTH 594 0
DWIDTH 7 0
BBX 5 10 1 0
BITMAP
18
30
00
78
c0
e0
70
38
18
f0
ENDCHAR
STARTCHAR section
ENCODING 167
SWIDTH 693 0
DWIDTH 7 0
BBX 5 8 1 -1
BITMAP
78
c0
f0
98
c8
78
18
f0
ENDCHAR
STARTCHAR diaeresis
ENCODING 168
SWIDTH 675 0
DWIDTH 7 0
BBX 4 2 2 7
BITMAP
90
90
ENDCHAR
STARTCHAR Scaron
ENCODING 169
SWIDTH 594 0
DWIDTH 7 0
BBX 5 10 1 0
BITMAP
58
30
00
78
c0
e0
70
38
18
f0
ENDCHAR
STARTCHAR Scedilla
ENCODING 170
SWIDTH 594 0
DWIDTH 7 0
BBX 5 9 1 -2
BITMAP
78
c0
e0
70
38
18
f0
10
60
ENDCHAR
STARTCHAR Tcaron
ENCODING 171
SWIDTH 735 0
DWIDTH 7 0
BBX 6 10 1 0
BITMAP
58
30
00
fc
30
30
30
30
30
30
ENDCHAR
STARTCHAR Zacute
ENCODING 172
SWIDTH 675 0
DWIDTH 7 0
BBX 5 10 1 0
BITMAP
18
30
00
f8
18
30
70
60
c0
f8
ENDCHAR
STARTCHAR hyphen
ENCODING 173
SWIDTH 289 0
DWIDTH 3 0
BBX 2 1 1 3
BITMAP
c0
ENDCHAR
STARTCHAR Zcaron
ENCODING 174
SWIDTH 675 0
DWIDTH 7 0
BBX 5 10 1 0
BITMAP
58
30
00
f8
18
30
70
60
c0
f8
ENDCHAR
STARTCHAR Zabovedot
ENCODING 175
SWIDTH 675 0
DWIDTH 7 0
BBX 5 10 1 0
BITMAP
30
30
00
f8
18
30
70
60
c0
f8
ENDCHAR
STARTCHAR degree
ENCODING 176
SWIDTH 241 0
DWIDTH 3 0
BBX 3 3 0 4
BITMAP
40
a0
40
ENDCHAR
STARTCHAR aogonek
ENCODING 177
SWIDTH 623 0
DWIDTH 6 0
BBX 6 8 0 -2
BITMAP
70
18
78
d8
d8
6c
40
30
ENDCHAR
STARTCHAR ogonek
ENCODING 178
SWIDTH 675 0
DWIDTH 7 0
BBX 3 2 3 -2
BITMAP
80
60
ENDCHAR
STARTCHAR lstroke
ENCODING 179
SWIDTH 361 0
DWIDTH 6 0
BBX 6 8 0 0
BITMAP
30
30
3c
f0
30
30
30
30
ENDCHAR
STARTCHAR acute
ENCODING 180
SWIDTH 675 0
DWIDTH 7 0
BBX 3 2 2 7
BITMAP
60
c0
ENDCHAR
STARTCHAR lcaron
ENCODING 181
SWIDTH 700 0
DWIDTH 7 0
BBX 5 9 1 0
BITMAP
18
d8
c8
d0
c0
c0
c0
c0
c0
ENDCHAR
STARTCHAR sacute
ENCODING 182
SWIDTH 622 0
DWIDTH 6 0
BBX 4 9 1 0
BITMAP
30
60
00
70
c0
e0
70
30
e0
ENDCHAR
STARTCHAR caron
ENCODING 183
SWIDTH 675 0
DWIDTH 7 0
BBX 4 2 2 7
BITMAP
b0
60
ENDCHAR
STARTCHAR cedilla
ENCODING 184
SWIDTH 675 0
DWIDTH 7 0
BBX 3 2 1 -2
BITMAP
20
c0
ENDCHAR
STARTCHAR scaron
ENCODING 185
SWIDTH 622 0
DWIDTH 6 0
BBX 4 9 1 0
BITMAP
b0
60
00
70
c0
e0
70
30
e0
ENDCHAR
STARTCHAR scedilla
ENCODING 186
SWIDTH 622 0
DWIDTH 6 0
BBX 4 8 1 -2
BITMAP
70
c0
e0
70
30
e0
20
c0
ENDCHAR
STARTCHAR tcaron
ENCODING 187
SWIDTH 436 0
DWIDTH 5 0
BBX 4 11 0 0
BITMAP
60
60
20
40
60
f0
60
60
60
60
30
ENDCHAR
STARTCHAR zacute
ENCODING 188
SWIDTH 608 0
DWIDTH 6 0
BBX 4 9 1 0
BITMAP
30
60
00
f0
30
60
60
c0
f0
ENDCHAR
STARTCHAR doubleacute
ENCODING 189
SWIDTH 675 0
DWIDTH 7 0
BBX 5 2 1 7
BITMAP
d8
90
ENDCHAR
STARTCHAR zcaron
ENCODING 190
SWIDTH 608 0
DWIDTH 6 0
BBX 4 9 1 0
BITMAP
b0
60
00
f0
30
60
60
c0
f0
ENDCHAR
STARTCHAR zabovedot
ENCODING 191
SWIDTH 608 0
DWIDTH 6 0
BBX 4 9 1 0
BITMAP
60
60
00
f0
30
60
60
c0
f0
ENDCHAR
STARTCHAR Racute
ENCODING 192
SWIDTH 734 0
DWIDTH 7 0
BBX 6 10 1 0
BITMAP
18
30
00
f0
d8
d8
f0
d8
d8
cc
ENDCHAR
STARTCHAR Aacute
ENCODING 193
SWIDTH 773 0
DWIDTH 8 0
BBX 6 9 1 0
BITMAP
18
30
00
30
58
58
fc
8c
8c
ENDCHAR
STARTCHAR Acircumflex
ENCODING 194
SWIDTH 773 0
DWIDTH 8 0
BBX 6 9 1 0
BITMAP
30
58
00
30
58
58
fc
8c
8c
ENDCHAR
STARTCHAR Abreve
ENCODING 195
SWIDTH 773 0
DWIDTH 8 0
BBX 6 10 1 0
BITMAP
88
70
00
30
30
58
58
fc
8c
8c
ENDCHAR
STARTCHAR Adiaeresis
ENCODING 196
SWIDTH 773 0
DWIDTH 8 0
BBX 6 9 1 0
BITMAP
48
48
00
30
58
58
fc
8c
8c
ENDCHAR
STARTCHAR Lacute
ENCODING 197
SWIDTH 620 0
DWIDTH 6 0
BBX 5 10 1 0
BITMAP
60
c0
00
c0
c0
c0
c0
c0
c0
f8
ENDCHAR
STARTCHAR Cacute
ENCODING 198
SWIDTH 726 0
DWIDTH 8 0
BBX 6 10 1 0
BITMAP
0c
18
00
3c
60
c0
c0
c0
60
3c
ENDCHAR
STARTCHAR Ccedilla
ENCODING 199
SWIDTH 726 0
DWIDTH 8 0
BBX 6 9 1 -2
BITMAP
3c
60
c0
c0
c0
60
3c
10
60
ENDCHAR
STARTCHAR Ccaron
ENCODING 200
SWIDTH 726 0
DWIDTH 8 0
BBX 6 10 1 0
BITMAP
2c
18
00
3c
60
c0
c0
c0
60
3c
ENDCHAR
STARTCHAR Eacute
ENCODING 201
SWIDTH 645 0
DWIDTH 7 0
BBX 5 9 1 0
BITMAP
30
60
00
f8
c0
f0
c0
c0
f8
ENDCHAR
STARTCHAR Eogonek
ENCODING 202
SWIDTH 645 0
DWIDTH 7 0
BBX 5 9 1 -2
BITMAP
f8
c0
c0
f0
c0
c0
f8
40
30
ENDCHAR
STARTCHAR Ediaeresis
ENCODING 203
SWIDTH 645 0
DWIDTH 7 0
BBX 5 9 1 0
BITMAP
48
48
00
f8
c0
f0
c0
c0
f8
ENDCHAR
STARTCHAR Ecaron
ENCODING 204
SWIDTH 645 0
DWIDTH 7 0
BBX 5 10 1 0
BITMAP
58
30
00
f8
c0
c0
f0
c0
c0
f8
ENDCHAR
STARTCHAR Iacute
ENCODING 205
SWIDTH 361 0
DWIDTH 4 0
BBX 3 9 1 0
BITMAP
60
c0
00
c0
c0
c0
c0
c0
c0
ENDCHAR
STARTCHAR Icircumflex
ENCODING 206
SWIDTH 361 0
DWIDTH 4 0
BBX 4 9 0 0
BITMAP
60
b0
00
60
60
60
60
60
60
ENDCHAR
STARTCHAR Dcaron
ENCODING 207
SWIDTH 819 0
DWIDTH 8 0
BBX 6 10 1 0
BITMAP
58
30
00
f0
d8
cc
cc
cc
d8
f0
ENDCHAR
STARTCHAR Dstroke
ENCODING 208
SWIDTH 819 0
DWIDTH 8 0
BBX 7 7 0 0
BITMAP
78
6c
66
f6
66
6c
78
ENDCHAR
STARTCHAR Nacute
ENCODING 209
SWIDTH 783 0
DWIDTH 8 0
BBX 6 10 1 0
BITMAP
18
30
00
c4
e4
f4
bc
9c
8c
84
ENDCHAR
STARTCHAR Ncaron
ENCODING 210
SWIDTH 783 0
DWIDTH 8 0
BBX 6 10 1 0
BITMAP
58
30
00
c4
e4
f4
bc
9c
8c
84
ENDCHAR
STARTCHAR Oacute
ENCODING 211
SWIDTH 855 0
DWIDTH 9 0
BBX 7 9 1 0
BITMAP
18
30
00
38
6c
c6
c6
6c
38
ENDCHAR
STARTCHAR Ocircumflex
ENCODING 212
SWIDTH 855 0
DWIDTH 9 0
BBX 7 9 1 0
BITMAP
18
2c
00
38
6c
c6
c6
6c
38
ENDCHAR
STARTCHAR Odoubleacute
ENCODING 213
SWIDTH 855 0
DWIDTH 9 0
BBX 7 10 1 0
BITMAP
36
24
00
38
6c
c6
c6
c6
6c
38
ENDCHAR
STARTCHAR Odiaeresis
ENCODING 214
SWIDTH 855 0
DWIDTH 9 0
BBX 7 9 1 0
BITMAP
48
48
00
38
6c
c6
c6
6c
38
ENDCHAR
STARTCHAR multiply
ENCODING 215
SWIDTH 687 0
DWIDTH 7 0
BBX 6 5 1 1
BITMAP
c4
68
30
58
8c
ENDCHAR
STARTCHAR Rcaron
ENCODING 216
SWIDTH 734 0
DWIDTH 7 0
BBX 6 10 1 0
BITMAP
58
30
00
f0
d8
d8
f0
d8
d8
cc
ENDCHAR
STARTCHAR Uring
ENCODING 217
SWIDTH 783 0
DWIDTH 8 0
BBX 6 11 1 0
BITMAP
30
58
30
00
cc
cc
cc
cc
cc
cc
78
ENDCHAR
STARTCHAR Uacute
ENCODING 218
SWIDTH 783 0
DWIDTH 8 0
BBX 6 9 1 0
BITMAP
18
30
00
cc
cc
cc
cc
cc
78
ENDCHAR
STARTCHAR Udoubleacute
ENCODING 219
SWIDTH 783 0
DWIDTH 8 0
BBX 6 10 1 0
BITMAP
6c
48
00
cc
cc
cc
cc
cc
cc
78
ENDCHAR
STARTCHAR Udiaeresis
ENCODING 220
SWIDTH 783 0
DWIDTH 8 0
BBX 6 9 1 0
BITMAP
48
48
00
cc
cc
cc
cc
cc
78
ENDCHAR
STARTCHAR Yacute
ENCODING 221
SWIDTH 738 0
DWIDTH 8 0
BBX 6 9 1 0
BITMAP
30
58
00
cc
cc
68
30
30
30
ENDCHAR
STARTCHAR Tcedilla
ENCODING 222
SWIDTH 735 0
DWIDTH 7 0
BBX 6 9 1 -2
BITMAP
fc
30
30
30
30
30
30
10
60
ENDCHAR
STARTCHAR ssharp
ENCODING 223
SWIDTH 724 0
DWIDTH 8 0
BBX 6 8 1 0
BITMAP
70
d8
d8
d0
c8
cc
cc
d8
ENDCHAR
STARTCHAR racute
ENCODING 224
SWIDTH 500 0
DWIDTH 5 0
BBX 4 9 1 0
BITMAP
30
60
00
d0
f0
c0
c0
c0
c0
ENDCHAR
STARTCHAR aacute
ENCODING 225
SWIDTH 623 0
DWIDTH 6 0
BBX 6 9 0 0
BITMAP
18
30
00
70
18
78
d8
d8
6c
ENDCHAR
STARTCHAR acircumflex
ENCODING 226
SWIDTH 623 0
DWIDTH 6 0
BBX 6 9 0 0
BITMAP
30
58
00
70
18
78
d8
d8
6c
ENDCHAR
STARTCHAR abreve
ENCODING 227
SWIDTH 623 0
DWIDTH 6 0
BBX 6 9 0 0
BITMAP
88
70
00
70
18
78
d8
d8
6c
ENDCHAR
STARTCHAR adiaeresis
ENCODING 228
SWIDTH 623 0
DWIDTH 6 0
BBX 6 9 0 0
BITMAP
48
48
00
70
18
78
d8
d8
6c
ENDCHAR
STARTCHAR lacute
ENCODING 229
SWIDTH 361 0
DWIDTH 4 0
BBX 3 11 1 0
BITMAP
60
c0
00
c0
c0
c0
c0
c0
c0
c0
c0
ENDCHAR
STARTCHAR cacute
ENCODING 230
SWIDTH 545 0
DWIDTH 6 0
BBX 4 9 1 0
BITMAP
30
60
00
70
c0
c0
c0
c0
70
ENDCHAR
STARTCHAR ccedilla
ENCODING 231
SWIDTH 545 0
DWIDTH 6 0
BBX 4 8 1 -2
BITMAP
70
c0
c0
c0
c0
70
20
c0
ENDCHAR
STARTCHAR ccaron
ENCODING 232
SWIDTH 545 0
DWIDTH 6 0
BBX 4 9 1 0
BITMAP
b0
60
00
70
c0
c0
c0
c0
70
ENDCHAR
STARTCHAR eacute
ENCODING 233
SWIDTH 614 0
DWIDTH 7 0
BBX 5 9 1 0
BITMAP
30
60
00
70
d8
d8
f8
c0
78
ENDCHAR
STARTCHAR eogonek
ENCODING 234
SWIDTH 614 0
DWIDTH 7 0
BBX 5 8 1 -2
BITMAP
70
d8
d8
f8
c0
78
40
30
ENDCHAR
STARTCHAR ediaeresis
ENCODING 235
SWIDTH 614 0
DWIDTH 7 0
BBX 5 9 1 0
BITMAP
48
48
00
70
d8
d8
f8
c0
78
ENDCHAR
STARTCHAR ecaron
ENCODING 236
SWIDTH 614 0
DWIDTH 7 0
BBX 5 9 1 0
BITMAP
58
30
00
70
d8
d8
f8
c0
78
ENDCHAR
STARTCHAR iacute
ENCODING 237
SWIDTH 361 0
DWIDTH 4 0
BBX 3 9 1 0
BITMAP
60
c0
00
c0
c0
c0
c0
c0
c0
ENDCHAR
STARTCHAR icircumflex
ENCODING 238
SWIDTH 361 0
DWIDTH 4 0
BBX 4 9 0 0
BITMAP
60
b0
00
60
60
60
60
60
60
ENDCHAR
STARTCHAR dcaron
ENCODING 239
SWIDTH 1000 0
DWIDTH 10 0
BBX 8 9 1 0
BITMAP
03
1b
19
7a
d8
d8
d8
d8
68
ENDCHAR
STARTCHAR dstroke
ENCODING 240
SWIDTH 800 0
DWIDTH 8 0
BBX 6 8 1 0
BITMAP
3c
18
78
d8
d8
d8
d8
68
ENDCHAR
STARTCHAR nacute
ENCODING 241
SWIDTH 693 0
DWIDTH 7 0
BBX 5 9 1 0
BITMAP
18
30
00
b0
d8
d8
d8
d8
d8
ENDCHAR
STARTCHAR ncaron
ENCODING 242
SWIDTH 693 0
DWIDTH 7 0
BBX 5 9 1 0
BITMAP
58
30
00
b0
d8
d8
d8
d8
d8
ENDCHAR
STARTCHAR oacute
ENCODING 243
SWIDTH 675 0
DWIDTH 7 0
BBX 5 9 1 0
BITMAP
30
60
00
70
d8
d8
d8
d8
70
ENDCHAR
STARTCHAR ocircumflex
ENCODING 244
SWIDTH 675 0
DWIDTH 7 0
BBX 5 9 1 0
BITMAP
30
58
00
70
d8
d8
d8
d8
70
ENDCHAR
STARTCHAR odoubleacute
ENCODING 245
SWIDTH 675 0
DWIDTH 7 0
BBX 6 9 1 0
BITMAP
6c
48
00
70
d8
d8
d8
d8
70
ENDCHAR
STARTCHAR odiaeresis
ENCODING 246
SWIDTH 675 0
DWIDTH 7 0
BBX 5 9 1 0
BITMAP
48
48
00
70
d8
d8
d8
d8
70
ENDCHAR
STARTCHAR division
ENCODING 247
SWIDTH 687 0
DWIDTH 7 0
BBX 5 5 1 1
BITMAP
20
00
f8
00
20
ENDCHAR
STARTCHAR rcaron
ENCODING 248
SWIDTH 500 0
DWIDTH 5 0
BBX 4 9 1 0
BITMAP
b0
60
00
d0
f0
c0
c0
c0
c0
ENDCHAR
STARTCHAR uring
ENCODING 249
SWIDTH 693 0
DWIDTH 7 0
BBX 5 10 1 0
BITMAP
30
58
30
00
d8
d8
d8
d8
d8
68
ENDCHAR
STARTCHAR uacute
ENCODING 250
SWIDTH 693 0
DWIDTH 7 0
BBX 5 9 1 0
BITMAP
30
60
00
d8
d8
d8
d8
d8
68
ENDCHAR
STARTCHAR udoubleacute
ENCODING 251
SWIDTH 693 0
DWIDTH 7 0
BBX 6 9 1 0
BITMAP
6c
48
00
d8
d8
d8
d8
d8
68
ENDCHAR
STARTCHAR udiaeresis
ENCODING 252
SWIDTH 693 0
DWIDTH 7 0
BBX 5 9 1 0
BITMAP
48
48
00
d8
d8
d8
d8
d8
68
ENDCHAR
STARTCHAR yacute
ENCODING 253
SWIDTH 645 0
DWIDTH 7 0
BBX 6 11 1 -2
BITMAP
18
30
00
cc
cc
68
68
30
30
60
60
ENDCHAR
STARTCHAR tcedilla
ENCODING 254
SWIDTH 436 0
DWIDTH 5 0
BBX 4 9 0 -2
BITMAP
60
f0
60
60
60
60
30
20
c0
ENDCHAR
STARTCHAR abovedot
ENCODING 255
SWIDTH 675 0
DWIDTH 7 0
BBX 2 2 3 7
BITMAP
c0
c0
ENDCHAR
ENDFONT
